<svg width="24" height="25" viewBox="0 0 24 25" fill="none" xmlns="http://www.w3.org/2000/svg">
<path fill-rule="evenodd" clip-rule="evenodd" d="M21.5984 12.5912C21.5984 17.8931 17.3004 22.1912 11.9984 22.1912C6.6965 22.1912 2.39844 17.8931 2.39844 12.5912C2.39844 7.28928 6.6965 2.99121 11.9984 2.99121C17.3004 2.99121 21.5984 7.28928 21.5984 12.5912ZM13.1984 7.79121C13.1984 8.45395 12.6612 8.99121 11.9984 8.99121C11.3357 8.99121 10.7984 8.45395 10.7984 7.79121C10.7984 7.12847 11.3357 6.59121 11.9984 6.59121C12.6612 6.59121 13.1984 7.12847 13.1984 7.79121ZM10.7984 11.3912C10.1357 11.3912 9.59844 11.9285 9.59844 12.5912C9.59844 13.254 10.1357 13.7912 10.7984 13.7912V17.3912C10.7984 18.054 11.3357 18.5912 11.9984 18.5912H13.1984C13.8612 18.5912 14.3984 18.054 14.3984 17.3912C14.3984 16.7285 13.8612 16.1912 13.1984 16.1912V12.5912C13.1984 11.9285 12.6612 11.3912 11.9984 11.3912H10.7984Z" fill="#525252"/>
</svg>
