<svg width="20" height="21" viewBox="0 0 20 21" fill="none" xmlns="http://www.w3.org/2000/svg">
<path d="M20 18.0908C20 18.3119 19.9122 18.5238 19.7559 18.6801C19.5996 18.8364 19.3877 18.9242 19.1667 18.9242H12.3467C12.177 19.4113 11.8599 19.8335 11.4394 20.1323C11.0189 20.4311 10.5158 20.5916 10 20.5916C9.48416 20.5916 8.98111 20.4311 8.56062 20.1323C8.14013 19.8335 7.82304 19.4113 7.65333 18.9242H0.833333C0.61232 18.9242 0.400358 18.8364 0.244078 18.6801C0.0877974 18.5238 0 18.3119 0 18.0908C0 17.8698 0.0877974 17.6579 0.244078 17.5016C0.400358 17.3453 0.61232 17.2575 0.833333 17.2575H7.65333C7.77783 16.909 7.97817 16.5924 8.23987 16.3307C8.50158 16.069 8.81813 15.8687 9.16667 15.7442V12.2575H4.16667C3.50363 12.2575 2.86774 11.9941 2.3989 11.5253C1.93006 11.0564 1.66667 10.4205 1.66667 9.7575C1.66667 9.53648 1.75446 9.32452 1.91074 9.16824C2.06702 9.01196 2.27899 8.92416 2.5 8.92416H7.155L7.5 9.26917C7.65434 9.42446 7.83796 9.54759 8.04023 9.63141C8.2425 9.71524 8.45939 9.75809 8.67833 9.7575H11.3217C11.5406 9.75809 11.7575 9.71524 11.9598 9.63141C12.162 9.54759 12.3457 9.42446 12.5 9.26917L12.845 8.92416H17.5C17.721 8.92416 17.933 9.01196 18.0893 9.16824C18.2455 9.32452 18.3333 9.53648 18.3333 9.7575C18.3333 10.4205 18.0699 11.0564 17.6011 11.5253C17.1323 11.9941 16.4964 12.2575 15.8333 12.2575H10.8333V15.7442C11.1819 15.8687 11.4984 16.069 11.7601 16.3307C12.0218 16.5924 12.2222 16.909 12.3467 17.2575H19.1667C19.3877 17.2575 19.5996 17.3453 19.7559 17.5016C19.9122 17.6579 20 17.8698 20 18.0908ZM8.33333 7.74583L8.67833 8.09083H11.3217L11.6667 7.74583C11.821 7.59054 12.0046 7.46741 12.2069 7.38358C12.4092 7.29976 12.6261 7.2569 12.845 7.2575H17.5V3.92416C17.5 3.0401 17.1488 2.19225 16.5237 1.56713C15.8986 0.94201 15.0507 0.59082 14.1667 0.59082L5.83333 0.59082C4.94928 0.59082 4.10143 0.94201 3.47631 1.56713C2.85119 2.19225 2.5 3.0401 2.5 3.92416V7.2575H7.155C7.37395 7.2569 7.59083 7.29976 7.7931 7.38358C7.99537 7.46741 8.17899 7.59054 8.33333 7.74583Z" fill="#434396"/>
</svg>
